# xmcd
#
# Track frame offsets:
#	150
#	14132
#	31502
#	46692
#	58352
#	74175
#	87467
#	98645
#	112830
#	124845
#	135927
#
# Disc length: 2141 seconds
# Revision: 4
# Processed by: cddbd v1.5.2PL0 Copyright (c) Steve Scherf et al.
# Submitted via: dBpowerAMP V12.0
#
DISCID=92085b0b
DTITLE=Fred Eaglesmith - 50 Odd Dollars
DYEAR=1999
DGENRE=Folk
TTITLE0=Blue Tick Hound
TTITLE1=Rodeo Boy
TTITLE2=Ten Ton Chain
TTITLE3=Gettin' to Me
TTITLE4=Mighty Big Car
TTITLE5=Crazier
TTITLE6=Georgia Overdrive
TTITLE7=Steel Guitar
TTITLE8=Carter
TTITLE9=Alternator
TTITLE10=Bullets
EXTD=
EXTT0=
EXTT1=
EXTT2=
EXTT3=
EXTT4=
EXTT5=
EXTT6=
EXTT7=
EXTT8=
EXTT9=
EXTT10=
PLAYORDER=
